<svg xmlns="http://www.w3.org/2000/svg" width="1200" height="675" viewBox="0 0 1200 675" role="img" aria-label="Proxmox, TrueNAS und Storage: Warum Hardwareplanung im Homelab wichtig ist">
  <defs>
    <linearGradient id="bg" x1="0" y1="0" x2="1" y2="1"><stop offset="0" stop-color="#050816"/><stop offset=".55" stop-color="#0f172a"/><stop offset="1" stop-color="#111827"/></linearGradient>
    <radialGradient id="glow1" cx="25%" cy="15%" r="70%"><stop offset="0" stop-color="#22d3ee" stop-opacity=".45"/><stop offset="1" stop-color="#22d3ee" stop-opacity="0"/></radialGradient>
    <radialGradient id="glow2" cx="90%" cy="20%" r="65%"><stop offset="0" stop-color="#6366f1" stop-opacity=".38"/><stop offset="1" stop-color="#6366f1" stop-opacity="0"/></radialGradient>
    <filter id="blur"><feGaussianBlur stdDeviation="22"/></filter>
  </defs>
  <rect width="1200" height="675" fill="url(#bg)"/>
  <rect width="1200" height="675" fill="url(#glow1)"/>
  <rect width="1200" height="675" fill="url(#glow2)"/>
  <circle cx="980" cy="505" r="170" fill="#22d3ee" opacity=".10" filter="url(#blur)"/>
  <circle cx="180" cy="150" r="130" fill="#6366f1" opacity=".10" filter="url(#blur)"/>
  <rect x="54" y="52" width="1092" height="571" rx="38" fill="rgba(15,23,42,.58)" stroke="rgba(255,255,255,.16)"/>
  <text x="90" y="125" font-family="Inter,Segoe UI,Arial,sans-serif" font-size="24" font-weight="700" fill="#22d3ee" letter-spacing="1.6">PROXMOX / TRUENAS</text>
  <text x="90" y="230" font-family="Inter,Segoe UI,Arial,sans-serif" font-size="42" font-weight="800" fill="#f8fafc"><tspan x="90" dy="0">Proxmox, TrueNAS und Storage</tspan><tspan x="90" dy="46">Warum Hardwareplanung im Homelab</tspan><tspan x="90" dy="46">wichtig ist</tspan></text>
  <text x="90" y="455" font-family="Inter,Segoe UI,Arial,sans-serif" font-size="28" fill="#bfdbfe">VMs + ZFS + HBA</text>
  <g transform="translate(90,520)"><rect width="145" height="42" rx="21" fill="rgba(255,255,255,.09)" stroke="rgba(255,255,255,.18)"/><text x="72" y="27" text-anchor="middle" font-size="18" fill="#dbeafe">Storage</text></g><g transform="translate(260,520)"><rect width="145" height="42" rx="21" fill="rgba(255,255,255,.09)" stroke="rgba(255,255,255,.18)"/><text x="72" y="27" text-anchor="middle" font-size="18" fill="#dbeafe">NVMe</text></g><g transform="translate(430,520)"><rect width="145" height="42" rx="21" fill="rgba(255,255,255,.09)" stroke="rgba(255,255,255,.18)"/><text x="72" y="27" text-anchor="middle" font-size="18" fill="#dbeafe">Backups</text></g>
  <ellipse cx="940" cy="230" rx="100" ry="34" fill="rgba(255,255,255,.08)" stroke="rgba(255,255,255,.78)" stroke-width="4"/><path d="M840 230 v145 c0 18 45 34 100 34s100-16 100-34V55" fill="rgba(255,255,255,.04)" stroke="rgba(255,255,255,.78)" stroke-width="4"/><ellipse cx="940" cy="375" rx="100" ry="34" fill="rgba(255,255,255,.05)" stroke="rgba(255,255,255,.78)" stroke-width="4"/>
  <path d="M780 505 C860 455 940 560 1035 490" stroke="rgba(255,255,255,.16)" stroke-width="5" fill="none" stroke-linecap="round"/>
  <text x="1110" y="586" font-family="Inter,Segoe UI,Arial,sans-serif" font-size="18" text-anchor="end" fill="rgba(226,232,240,.72)">jqpollag.de · Homelab</text>
</svg>